<svg enable-background="new 0 0 200 33.093212" viewBox="0 0 200 33.093212" xmlns="http://www.w3.org/2000/svg"><g fill="#fff"><path d="m3.228973 11.187162c.639664-.180724.876851-1.246514 1.501099-1.472777 1.093881-.396484 1.471614-1.78275 2.565925-2.178036.464122-.167649.934349-.316673 1.416142-.42714.391429-.089748.789144-.135133 1.187448-.17803.088334-.009514.176071-.024577.264081-.037085h1.137545c.013906.005186.027422.013101.041775.015153.264144.037765.529504.068266.792413.113172 1.151831.196736 2.209727.631374 3.183969 1.272729.643844.423848 1.223399.92425 1.75081 1.485641.670515.713718 1.228128 1.505298 1.644133 2.393644.344519.735688.5804 1.50472.696468 2.309347.03232.22406.080149.446382.082266.67426.000164.017768.008741.035459.013407.053184v1.100248c-.004675.020275-.013531.040579-.013393.060822.001917.287027-.041336.569822-.086094.851696-.137348.865026-.4088 1.688087-.801853 2.469711-.496004.986361-1.151785 1.855732-1.954439 2.612812-.789641.744804-1.994455.635145-2.99017 1.065184-.87141.37635-1.470248.649406-2.411727.746168-.07294.007496-.060793-.385359-.133245-.373083-.298372 0-.621015.373083-.919388.373083-.136456-.025021-.302461-.007179-.439707-.026648-.378404-.053682-.68202-.038994-1.052632-.133245-.647661-.164709-1.145348-.397036-1.772152-.626249-1.259152-.460451-1.820625-2.110523-3.079582-2.57151-.716135-.262228-.484546-2.362249-1.246196-2.446489zm-.094791 8.20052c.587323.171389.482954 1.70355 1.05719 1.912889 1.119577.408144 2.235744.825678 3.356227 1.2313.738923.267496 1.486558.507378 2.269294.615807.141403.019588.282127.059013.423519.060766.338053.00419.676362.01692 1.014059-.032494.3873-.056671.77437-.111042 1.151633-.218794 1.365816-.390093 2.546844-1.087738 3.520256-2.12611.791215-.844017 1.382035-1.80875 1.726043-2.917732.199011-.64155.311567-1.297121.303532-1.971075-.002333-.195771.000319-.391597-.000813-.587388-.000305-.052659-.002474-.105813-.010017-.157835-.029846-.205823-.060873-.411494-.0938-.616847-.140554-.876576-.45841-1.686716-.920235-2.442102-.421398-.689265-.945082-1.292962-1.5451-1.831513-.562982-.505311-1.182673-.925717-1.871295-1.242509-.584991-.269115-1.196426-.44888-1.832377-.545433-.1902-.028877-.381452-.065484-.572779-.0691-.359764-.006801-.720701-.021996-1.079503.029147-.258156.036797-.518492.060471-.775042.10589-.46585.082472-.915084.228604-1.359136.388399-.91089.327788-1.819664.661461-2.72971.991603-.76141.276222-1.077852 1.66315-1.852188 1.902354z"/><path d="m6.163942 15.806511c.015789-2.309987 1.867549-4.123816 4.132633-4.120224 2.334846.003703 4.166846 1.92387 4.117216 4.216282-.049052 2.265617-1.938378 4.081335-4.218043 4.031082-2.142476-.047228-4.018073-1.783384-4.031806-4.12714zm6.628498.063542c.034458-1.301647-.96122-2.469816-2.349107-2.557392-1.389911-.087703-2.595957.980309-2.653762 2.400915-.056334 1.384509 1.036695 2.580121 2.469246 2.599904 1.38301.019099 2.505195-1.085271 2.533623-2.443427z"/><path d="m76.289444 6.894093h1.137543c.013908.005186.02742.013101.041779.015152.264145.037765.529503.068267.792412.113173 1.151833.196736 2.209724.631374 3.183968 1.272729.643845.423847 1.223396.92425 1.750809 1.48564.670517.713719 1.228127 1.505298 1.644135 2.393645.344521.735688.580399 1.50472.696465 2.309347.032326.224059.080154.446382.082268.67426.000168.017768.008743.035459.013405.053184v1.100249c-.004669.020275-.013527.040577-.01339.060822.001915.287027-.041336.56982-.086098.851694-.137344.865028-.408798 1.688089-.801849 2.469711-.496002.986362-1.151787 1.855734-1.954437 2.612812-.789642.744806-1.69194 1.317945-2.687653 1.747984-.871407.37635-1.782639.590338-2.724121.687099-.072937.007494-.144966.023918-.217415.036194-.29837 0-.596741 0-.895119 0-.136452-.025023-.272247-.054707-.409492-.074177-.378403-.05368-.753265-.123663-1.123878-.217915-.647659-.164709-1.278297-.381964-1.905106-.611177-1.259148-.460451-2.517838-.922169-3.776794-1.383156-.716133-.262228-1.444679-.473845-2.206329-.558084-.51384-.056829-1.028488-.071558-1.543762-.040405-.633995.03833-1.257744.144688-1.872719.303896-.607643.15731-1.200096.361408-1.788559.577602-1.182507.434441-2.363747.87233-3.546711 1.305506-.343788.125887-.686665.258511-1.038685.356773-.754715.210669-1.527275.300198-2.311523.29026-.307934-.003902-.614304-.021761-.920059-.057936-.594406-.07032-1.173706-.205116-1.737495-.405182-1.33987-.47547-2.487324-1.247561-3.46751-2.270666-.778831-.812937-1.394234-1.73802-1.848888-2.768286-.417419-.94589-.678951-1.93121-.736732-2.966963-.004574-.081932-.020988-.163202-.031902-.24478 0-.248645 0-.497288 0-.745932.01199-.046922.028187-.09322.035252-.140871.035069-.236423.056057-.475559.103268-.709447.196423-.97312.513405-1.905076.978245-2.784261.53054-1.003447 1.227592-1.872771 2.099552-2.600921.635628-.530793 1.333164-.963777 2.083584-1.311137.706238-.326908 1.428406-.608006 2.208012-.7058.249329-.031276.499454-.06975.749901-.075622.450035-.010551.900604-.000527 1.350918.004083.224014.002294.446545.026438.665668.073733.658905.142217 1.308857.319659 1.94529.54031.838371.290665 1.671844.595609 2.505508.899663.731647.266846 1.458294.547698 2.201836.780781.626507.196394 1.265118.338807 1.91798.412024.491669.05514.985077.067602 1.479134.039714.659653-.037235 1.307121-.147023 1.9431-.326704.639664-.180724 1.263985-.406932 1.888237-.633195 1.09388-.396484 2.185982-.797885 3.280296-1.193172.464119-.167649.934349-.316673 1.416138-.42714.391434-.089748.789146-.135133 1.187447-.178031.088325-.009509.176063-.024572.264076-.03708zm-21.516201 1.579552c-.189533.010049-.50024.01743-.809048.045645-.26857.024539-.536301.065703-.796711.141474-.662056.192633-1.288441.46902-1.88578.81144-.998112.572162-1.828102 1.327486-2.454987 2.294924-.656433 1.013038-1.062572 2.122199-1.231945 3.317336-.020863.147195-.032948.296024-.040886.444534-.006126.114581-.003021.230022.00243.344774.010021.21086.015965.422479.039333.632028.056622.507729.172913 1.002748.34193 1.485088.432159 1.233288 1.121731 2.301123 2.066177 3.203491.584122.558092 1.241623 1.01158 1.973232 1.355185.79385.372835 1.630787.577274 2.505966.620544.469524.023214.937943-.001019 1.402706-.074457.303547-.047964.606697-.100103.897552-.20429.61636-.220781 1.233524-.439375 1.848343-.664385.993725-.363678 1.983707-.737679 2.97924-1.09631.898174-.323559 1.815395-.577436 2.764462-.705545.487144-.065756.976128-.102339 1.467278-.102346.388298-.000006.775681.023891 1.16185.068848.534767.062254 1.061234.164072 1.578102.314901.587326.171387 1.160423.384706 1.734657.594046 1.119576.408144 2.235748.82568 3.356224 1.2313.738922.267496 1.486565.50738 2.269295.615808.141403.019587.282127.059013.423523.060766.338051.00419.676361.01692 1.014061-.032495.387299-.056671.774368-.11104 1.151634-.218792 1.365814-.390093 2.546837-1.087738 3.520256-2.126112.791214-.844015 1.382034-1.80875 1.726036-2.917732.199013-.641548.311569-1.297119.303535-1.971074-.002335-.195771.00032-.391597-.000816-.587389-.000305-.052658-.002472-.105812-.010017-.157834-.029846-.205823-.060867-.411494-.093796-.616847-.140556-.876576-.458412-1.686717-.920235-2.442102-.421402-.689265-.945084-1.292962-1.545105-1.831513-.562981-.505311-1.182671-.925718-1.871292-1.242509-.584991-.269116-1.196426-.44888-1.832375-.545433-.190201-.028877-.381454-.065485-.572777-.069101-.359772-.0068-.720703-.021996-1.079506.029148-.258156.036798-.518494.060472-.77504.10589-.465851.082472-.915085.228604-1.359138.388399-.910889.327788-1.819664.661461-2.729713.991603-.761406.276222-1.520164.560064-2.294502.799269-.738136.228022-1.49057.385408-2.260643.451839-.467606.040339-.936043.050976-1.40554.028735-.475555-.022528-.947144-.07607-1.415157-.160531-.707287-.12764-1.397247-.321671-2.072929-.564534-.80302-.288632-1.603577-.584156-2.404308-.879125-1.036869-.381955-2.074951-.759759-3.150108-1.023922-.205143-.050403-.409809-.105744-.62149-.116219-.257389-.012736-.515259-.015781-.893978-.026418z"/><path d="m58.831455 15.830449c-.017399 2.349118-1.89455 4.074372-4.025955 4.124013-2.292709.053396-4.172237-1.77319-4.224388-4.024716-.052876-2.282814 1.767845-4.214622 4.111057-4.222474 2.258259-.00757 4.122791 1.798114 4.139286 4.123177zm-6.632496.002028c.01429 1.391597 1.116718 2.501842 2.506115 2.501044 1.399467-.000805 2.502575-1.12233 2.501587-2.502758-.000999-1.403572-1.131443-2.496722-2.49366-2.501864-1.353958-.005113-2.499264 1.075686-2.514042 2.503578z"/><path d="m72.805389 15.827521c.015785-2.309988 1.867546-4.123816 4.132629-4.120225 2.334846.003703 4.166847 1.92387 4.117218 4.216282-.049049 2.265619-1.938377 4.081335-4.21804 4.031082-2.142479-.047227-4.018074-1.783384-4.031807-4.127139zm6.628495.063542c.034462-1.301647-.96122-2.469815-2.349106-2.557392-1.389908-.087703-2.595955.980309-2.653763 2.400915-.056335 1.384509 1.036697 2.580121 2.469246 2.599904 1.383011.019098 2.505196-1.085272 2.533623-2.443427z"/><path d="m54.300079 6.900396h1.137547c.013905.005186.02742.013101.041771.015152.264145.037765.529507.068267.792416.113173 1.151829.196736 2.209724.631374 3.183968 1.272729.643845.423848 1.2234.92425 1.750809 1.485641.670517.713718 1.22813 1.505297 1.644135 2.393644.344521.735688.580399 1.50472.696468 2.309347.032322.224059.080147.446382.082264.67426.000164.017768.008743.035459.013409.053184v1.100248c-.004677.020275-.013531.040579-.013393.060822.001915.287027-.041336.56982-.086094.851696-.137348.865026-.408802 1.688087-.801853 2.469711-.496006.986361-1.151787 1.855732-1.954441 2.612812-.789639.744804-1.691933 1.317945-2.687649 1.747982-.87141.376352-1.782642.590338-2.724121.687099-.072937.007496-.144962.02392-.217411.036194-.298374 0-.596748 0-.895119 0-.136456-.025023-.272247-.054707-.409496-.074175-.378403-.05368-.753265-.123665-1.123878-.217915-.647659-.164711-1.278297-.381966-1.905102-.611177-1.259151-.460451-2.517841-.922169-3.776794-1.383158-.716137-.262226-1.444679-.473845-2.206329-.558083-.51384-.056829-1.028488-.071558-1.543762-.040407-.633995.03833-1.257748.144688-1.872719.303898-.607647.15731-1.200096.361406-1.788563.577602-1.182507.434439-2.363747.87233-3.546711 1.305504-.343788.125887-.686665.258511-1.038685.356773-.754715.210669-1.527275.300198-2.31152.290262-.307938-.003902-.614307-.021763-.920063-.057936-.594406-.07032-1.173706-.205118-1.737494-.405182-1.33987-.47547-2.487324-1.247561-3.46751-2.270668-.778831-.812935-1.394236-1.73802-1.84889-2.768284-.417419-.94589-.678949-1.931211-.736734-2.966965-.00457-.08193-.020987-.163202-.031898-.24478 0-.248644 0-.497287 0-.745931.011988-.046922.028185-.09322.035252-.140871.035067-.236423.056055-.475559.103266-.709447.196423-.97312.513405-1.905076.978245-2.784261.530542-1.003447 1.227592-1.872771 2.099554-2.600921.635626-.530793 1.333162-.963777 2.083584-1.311137.706236-.326907 1.428404-.608006 2.208012-.7058.249329-.031276.499453-.06975.749899-.075622.450035-.010551.900604-.000527 1.350918.004083.224014.002294.446548.026438.665668.073733.658905.142217 1.308857.319659 1.94529.54031.838371.290665 1.671844.595609 2.505508.899663.731647.266846 1.458294.547698 2.201836.780781.626507.196394 1.265114.338807 1.917984.412024.491665.05514.985073.067602 1.47913.039714.659657-.037234 1.307121-.147023 1.943096-.326704.639664-.180724 1.263992-.406932 1.888241-.633195 1.09388-.396484 2.185982-.797885 3.280293-1.193172.464123-.167649.934349-.316673 1.416142-.42714.39143-.089748.789146-.135133 1.18745-.17803.088327-.009509.176065-.024572.264074-.03708zm-21.516201 1.579552c-.189529.010049-.50024.01743-.809046.045645-.268572.024539-.536301.065703-.796713.141474-.662056.192633-1.288441.46902-1.885778.811441-.998112.572161-1.828102 1.327485-2.454988 2.294923-.656433 1.013038-1.062572 2.122199-1.231945 3.317336-.020861.147195-.032946.296024-.040886.444534-.006126.114581-.003019.230022.002432.344774.010019.210859.015963.42248.039331.632027.056622.507729.172915 1.00275.341932 1.485088.432159 1.233288 1.121731 2.301125 2.066177 3.203491.58412.558094 1.241621 1.01158 1.973232 1.355186.793848.372833 1.630785.577272 2.505964.620544.469524.023212.937943-.001019 1.402706-.074459.303551-.047962.606697-.100103.897552-.204288.61636-.220783 1.233524-.439377 1.848343-.664385.993725-.36368 1.983711-.737679 2.97924-1.096312.898174-.323557 1.815395-.577435 2.764458-.705544.487148-.065756.976135-.102339 1.467281-.102348.388298-.000006.775681.023893 1.16185.068848.534767.062254 1.061234.164074 1.578106.314901.587322.171387 1.160419.384708 1.734653.594048 1.119579.408142 2.235744.825678 3.356228 1.2313.738922.267496 1.486557.507378 2.269295.615807.141403.019587.282127.059013.423519.060766.338051.00419.676361.01692 1.014061-.032494.387299-.056671.774368-.111042 1.15163-.218794 1.365818-.390093 2.546844-1.087738 3.520256-2.12611.791218-.844017 1.382034-1.80875 1.726044-2.917734.199013-.641548.311569-1.297119.303532-1.971073-.002335-.195771.00032-.391597-.000813-.587389-.000305-.052658-.002476-.105812-.010017-.157834-.029846-.205823-.060875-.411494-.0938-.616847-.140553-.876576-.458408-1.686716-.920235-2.442102-.421398-.689265-.945084-1.292962-1.545101-1.831513-.562978-.50531-1.182668-.925717-1.871289-1.242508-.584995-.269116-1.196426-.44888-1.832378-.545433-.190201-.028877-.381454-.065485-.572781-.069101-.359764-.0068-.720699-.021996-1.079502.029148-.258156.036798-.51849.060472-.775043.10589-.465847.082472-.915081.228604-1.359135.388399-.910889.327788-1.819664.661461-2.72971.991603-.76141.276222-1.520172.560064-2.294506.799269-.738136.228022-1.490566.385408-2.260643.451839-.467606.040339-.936043.050976-1.40554.028735-.475555-.022528-.94714-.07607-1.415157-.160531-.707287-.12764-1.397247-.32167-2.072929-.564534-.80302-.288632-1.603577-.584156-2.404305-.879125-1.036873-.381955-2.074955-.759759-3.150112-1.023922-.205143-.050403-.409809-.105744-.62149-.116219-.257391-.012736-.51526-.01578-.89398-.026417z"/><path d="m36.842094 15.836752c-.017403 2.349119-1.894554 4.074371-4.025959 4.124012-2.292709.053398-4.172235-1.773188-4.224386-4.024715-.052876-2.282814 1.767843-4.214622 4.111055-4.222474 2.258259-.00757 4.122792 1.798114 4.13929 4.123177zm-6.632497.002027c.01429 1.391596 1.116716 2.501842 2.506113 2.501043 1.399471-.000805 2.502575-1.122328 2.501587-2.502757-.000999-1.403572-1.131443-2.496722-2.49366-2.501864-1.353959-.005112-2.499264 1.075687-2.51404 2.503578z"/><path d="m50.816025 15.833824c.015789-2.309988 1.86755-4.123816 4.132629-4.120225 2.33485.003703 4.166847 1.92387 4.117218 4.216283-.049053 2.265617-1.938377 4.081333-4.218044 4.03108-2.142475-.047226-4.01807-1.783382-4.031803-4.127138zm6.628498.063543c.034458-1.301648-.96122-2.469816-2.34911-2.557393-1.389908-.087703-2.595955.980309-2.653759 2.400915-.056335 1.38451 1.036694 2.58012 2.469246 2.599903 1.383007.019098 2.505196-1.08527 2.533623-2.443425z"/><path d="m32.086445 6.868628h1.137543c.013908.005186.027424.013101.041775.015152.264145.037765.529503.068267.792412.113173 1.151833.196736 2.209728.631374 3.183971 1.27273.643845.423847 1.2234.92425 1.750809 1.48564.670517.713719 1.22813 1.505298 1.644131 2.393644.344521.735688.580402 1.504721.696472 2.309348.032318.224059.080147.446381.082264.67426.000164.017768.008739.035458.013409.053184v1.100248c-.004677.020275-.013531.040579-.013397.060822.001919.287027-.041332.56982-.08609.851694-.137352.865028-.408802 1.688089-.801853 2.469713-.496006.986361-1.151787 1.855732-1.954441 2.61281-.789642.744806-1.691936 1.317947-2.687649 1.747984-.87141.376352-1.782642.590338-2.724121.687099-.072941.007496-.144962.02392-.217415.036194-.29837 0-.596745 0-.895115 0-.136457-.025023-.272249-.054707-.409496-.074175-.378405-.053682-.753267-.123665-1.12388-.217916-.647661-.164709-1.278296-.381964-1.905102-.611177-1.259151-.460449-2.517839-.922169-3.776796-1.383156-.716135-.262226-1.444679-.473845-2.206327-.558084-.513842-.056828-1.028488-.071556-1.543762-.040405-.633995.03833-1.257748.144688-1.872719.303898-.607645.15731-1.200098.361406-1.788563.577602-1.182505.434439-2.363746.872328-3.546711 1.305504-.343787.125887-.686663.258511-1.038686.356773-.754712.210669-1.527272.300198-2.31152.290262-.307936-.003904-.614307-.021763-.920062-.057936-.594405-.07032-1.173706-.205118-1.737493-.405182-1.339871-.47547-2.487324-1.247562-3.46751-2.270668-.778831-.812937-1.394237-1.73802-1.848891-2.768284-.417419-.945892-.67895-1.931211-.736734-2.966965-.004571-.081932-.020988-.163202-.031899-.24478 0-.248644 0-.497288 0-.745932.011987-.046922.028184-.09322.035251-.140871.035066-.236423.056056-.475558.103266-.709446.196423-.97312.513404-1.905077.978245-2.784262.530541-1.003447 1.227592-1.872771 2.099553-2.600921.635625-.530792 1.333163-.963777 2.083584-1.311137.706236-.326908 1.428405-.608006 2.208013-.7058.249329-.031276.499452-.06975.749899-.075622.450034-.010551.900605-.000527 1.350919.004083.224013.002294.446546.026438.665668.073733.658903.142217 1.308857.319659 1.945288.54031.838373.290665 1.671844.59561 2.50551.899664.731646.266845 1.458292.547698 2.201834.78078.626507.196394 1.265116.338807 1.917984.412025.491667.05514.985071.067602 1.47913.039714.659657-.037235 1.307121-.147023 1.943098-.326704.639664-.180724 1.263988-.406933 1.888237-.633196 1.093882-.396484 2.185986-.797885 3.280296-1.193171.464121-.167649.934349-.316673 1.416142-.42714.39143-.089748.789145-.135133 1.187449-.178031.088331-.00951.176069-.024574.26408-.037082zm-21.516202 1.579553c-.189532.010049-.50024.017429-.809047.045645-.268571.024539-.5363.065702-.796713.141473-.662057.192634-1.28844.46902-1.885779.811441-.998111.572161-1.828101 1.327486-2.454987 2.294924-.656435 1.013037-1.062574 2.122198-1.231946 3.317335-.02086.147196-.032946.296024-.040886.444535-.006127.11458-.00302.230021.002433.344774.010019.210859.015962.422478.039331.632027.056622.507729.172915 1.00275.341933 1.485088.432159 1.233288 1.121731 2.301123 2.066178 3.203491.58412.558094 1.241621 1.01158 1.973232 1.355185.793848.372835 1.630785.577274 2.505963.620544.469525.023214.937943-.001019 1.402708-.074457.303548-.047964.606696-.100103.897552-.20429.616358-.220781 1.233525-.439375 1.848342-.664383.993726-.36368 1.983709-.73768 2.97924-1.096312.898174-.323557 1.815397-.577436 2.76446-.705545.487144-.065756.976131-.102339 1.467279-.102346.388296-.000006.775681.023891 1.16185.068848.534767.062254 1.061232.164072 1.578106.314901.587322.171387 1.160419.384706 1.734655.594046 1.119577.408144 2.235744.82568 3.356228 1.2313.73892.267498 1.486557.50738 2.269293.615808.141403.019587.282129.059013.423521.060766.338051.00419.676361.01692 1.014057-.032495.387302-.056671.774372-.11104 1.151634-.218792 1.365814-.390093 2.546844-1.087738 3.520256-2.12611.791214-.844017 1.382034-1.80875 1.72604-2.917734.199013-.641548.311569-1.297119.303535-1.971073-.002335-.195771.000317-.391597-.000813-.587389-.000305-.052659-.002476-.105812-.010021-.157835-.029842-.205822-.060871-.411494-.093796-.616847-.140556-.876575-.458412-1.686716-.920238-2.442102-.421398-.689264-.94508-1.292962-1.545097-1.831512-.562981-.505311-1.182674-.925718-1.871296-1.242509-.584991-.269116-1.196426-.44888-1.832378-.545434-.190197-.028876-.381451-.065484-.572777-.0691-.359764-.0068-.720703-.021996-1.079504.029148-.258156.036797-.518492.060471-.775042.105889-.465849.082473-.915083.228604-1.359137.3884-.910891.327788-1.819664.66146-2.72971.991603-.76141.276222-1.52017.560063-2.294506.799268-.738134.228022-1.490568.385408-2.260641.45184-.467607.040339-.936045.050975-1.405544.028734-.475554-.022528-.947136-.07607-1.415155-.16053-.707287-.127641-1.397245-.321671-2.072929-.564534-.80302-.288633-1.603577-.584157-2.404306-.879125-1.036869-.381956-2.074952-.759759-3.15011-1.023923-.205142-.050403-.409808-.105743-.62149-.116219-.257389-.012736-.515258-.015781-.893978-.026417z"/><path d="m14.628457 15.804984c-.017402 2.349118-1.894552 4.074372-4.025957 4.124013-2.29271.053396-4.172237-1.77319-4.224387-4.024716-.052875-2.282813 1.767844-4.214621 4.111057-4.222474 2.258257-.007569 4.122789 1.798114 4.139287 4.123177zm-6.632496.002028c.01429 1.391597 1.116716 2.501842 2.506113 2.501044 1.399468-.000805 2.502574-1.12233 2.501588-2.502757-.001001-1.403573-1.131444-2.496722-2.493662-2.501865-1.353958-.005113-2.499264 1.075687-2.514039 2.503578z"/><path d="m28.602386 15.802056c.015789-2.309987 1.86755-4.123816 4.132633-4.120224 2.334846.003703 4.166847 1.923869 4.117218 4.216282-.049053 2.265618-1.938381 4.081334-4.218044 4.031081-2.142475-.047227-4.018072-1.783382-4.031807-4.127139zm6.628499.063543c.034458-1.301647-.96122-2.469816-2.349106-2.557392-1.389912-.087703-2.595957.980309-2.653761 2.400914-.056335 1.384509 1.036695 2.580121 2.469244 2.599904 1.383011.019098 2.505195-1.085272 2.533623-2.443426z"/><path d="m98.542709 6.885689h1.13755c.013901.005186.02742.013101.041771.015152.264145.037765.529503.068267.792412.113173 1.151833.196736 2.209724.631374 3.183968 1.272729.643845.423847 1.223404.92425 1.750809 1.48564.670517.713719 1.228134 1.505298 1.644135 2.393645.344521.735688.580399 1.50472.696472 2.309347.032318.224059.080147.446382.08226.67426.000168.017768.008743.035458.013412.053184v1.100249c-.004677.020275-.013535.040577-.013397.060822.001915.287027-.041336.56982-.08609.851694-.137352.865028-.408806 1.688089-.801857 2.469711-.496002.986361-1.151787 1.855734-1.954437 2.612812-.789642.744806-1.691933 1.317945-2.687653 1.747984-.871407.37635-1.782639.590338-2.724113.687099-.072945.007494-.144966.023918-.217415.036194-.298378 0-.596748 0-.895119 0-.136459-.025023-.272247-.054707-.4095-.074177-.378403-.05368-.753265-.123663-1.123878-.217915-.647659-.164709-1.278297-.381964-1.905098-.611177-1.259155-.460451-2.517838-.922169-3.776794-1.383156-.716141-.262228-1.444679-.473845-2.206329-.558084-.51384-.056829-1.028488-.071558-1.543762-.040405-.633995.03833-1.257751.144688-1.872719.303896-.607643.15731-1.200096.361408-1.788567.577602-1.182503.434441-2.363747.87233-3.546707 1.305506-.343788.125887-.686668.258511-1.038689.356773-.754707.210669-1.527275.300198-2.311516.29026-.307938-.003902-.614311-.021761-.920067-.057936-.594406-.07032-1.173706-.205116-1.737488-.405182-1.339874-.47547-2.487328-1.247561-3.467514-2.270666-.778831-.812937-1.394234-1.73802-1.848892-2.768286-.417419-.94589-.678947-1.93121-.736732-2.966963-.00457-.081932-.020988-.163202-.031898-.244781 0-.248643 0-.497286 0-.74593.011986-.046922.028183-.09322.035255-.140871.035065-.236423.056053-.475559.103264-.709447.196419-.97312.513405-1.905076.978241-2.784261.530548-1.003447 1.227592-1.872772 2.099556-2.600921.635628-.530793 1.33316-.963777 2.083588-1.311137.70623-.326908 1.428398-.608006 2.208008-.7058.249329-.031276.499451-.06975.749901-.075622.450035-.010551.900604-.000527 1.350914.004083.224014.002294.446548.026438.665672.073733.658905.142217 1.308861.319659 1.94529.54031.838371.290665 1.671844.595609 2.505508.899663.731644.266846 1.45829.547698 2.201836.780781.626503.196394 1.265114.338807 1.917984.412024.491661.05514.985069.067602 1.479126.039714.65966-.037235 1.307121-.147023 1.9431-.326704.639664-.180724 1.263992-.406932 1.888237-.633195 1.09388-.396484 2.185982-.797885 3.280296-1.193172.464119-.167649.934349-.316673 1.416145-.42714.391426-.089748.789139-.135133 1.187447-.178031.088331-.00951.176069-.024573.264074-.037081zm-21.516197 1.579552c-.189529.010049-.500244.01743-.809044.045645-.268578.024539-.536301.065703-.796715.141474-.662056.192633-1.288445.46902-1.88578.81144-.998108.572162-1.828102 1.327486-2.454987 2.294924-.656433 1.013038-1.062576 2.122199-1.231949 3.317336-.020859.147195-.032944.296024-.040886.444534-.006126.114581-.003021.230022.002434.344774.010017.21086.015961.422479.03933.632028.056625.507727.17292 1.002748.341934 1.485088.432159 1.233288 1.121735 2.301123 2.066177 3.203491.584122.558092 1.241623 1.01158 1.973236 1.355185.793846.372835 1.630783.577274 2.505959.620544.469528.023214.937943-.001019 1.40271-.074457.303551-.047964.606697-.100103.897552-.20429.616356-.220781 1.233528-.439375 1.848343-.664385.993721-.363678 1.983711-.737679 2.97924-1.09631.89817-.323559 1.815399-.577436 2.764458-.705545.487144-.065756.976135-.102339 1.467278-.102346.388298-.000006.775681.023891 1.16185.068848.534767.062254 1.061234.164072 1.57811.314901.587318.171387 1.160416.384706 1.73465.594046 1.119583.408144 2.235748.82568 3.356232 1.2313.738922.267496 1.486557.50738 2.269295.615808.141403.019587.282127.059013.423515.060766.338058.00419.676361.01692 1.014061-.032495.387299-.056671.774368-.11104 1.151634-.218792 1.365814-.390095 2.546844-1.087738 3.520256-2.126112.791214-.844015 1.382034-1.80875 1.726044-2.917732.199013-.641548.311569-1.297119.303528-1.971074-.002327-.195771.00032-.391597-.000809-.587389-.000305-.052658-.002472-.105812-.010017-.157834-.029846-.205823-.060875-.411494-.093803-.616848-.140549-.876575-.458405-1.686716-.920235-2.442101-.421394-.689265-.945084-1.292962-1.545097-1.831513-.562981-.505311-1.182671-.925718-1.871292-1.242509-.584991-.269116-1.196426-.44888-1.832382-.545433-.190201-.028877-.381447-.065485-.572777-.069101-.359764-.0068-.720703-.021996-1.079506.029148-.258156.036798-.518486.060472-.77504.10589-.465851.082472-.915085.228604-1.359138.388399-.910889.327788-1.819664.661461-2.729706.991603-.761414.276222-1.520172.560064-2.29451.799269-.738136.228022-1.490562.385408-2.260643.451839-.467606.040339-.936043.050975-1.40554.028735-.475555-.022528-.947136-.07607-1.415154-.160531-.707291-.12764-1.397247-.321671-2.072929-.564534-.803024-.288632-1.603577-.584157-2.404305-.879125-1.036873-.381955-2.074959-.759759-3.150116-1.023922-.205139-.050403-.409805-.105744-.62149-.11622-.257387-.012736-.51526-.015779-.893976-.026417z"/><path d="m81.084724 15.822045c-.017403 2.349118-1.894554 4.074372-4.025955 4.124011-2.292709.053398-4.172241-1.773188-4.224388-4.024714-.052872-2.282814 1.767845-4.214622 4.111053-4.222474 2.258263-.00757 4.122796 1.798115 4.13929 4.123177zm-6.632492.002028c.01429 1.391597 1.116714 2.501842 2.506111 2.501044 1.399467-.000805 2.502571-1.12233 2.501587-2.502758-.000999-1.403572-1.131447-2.496722-2.49366-2.501864-1.353958-.005113-2.499267 1.075686-2.514038 2.503578z"/><path d="m95.058655 15.819117c.015793-2.309987 1.867554-4.123816 4.132629-4.120224 2.334854.003703 4.166847 1.92387 4.117218 4.216282-.049049 2.265617-1.938377 4.081335-4.21804 4.031082-2.142479-.047228-4.018074-1.783385-4.031807-4.12714zm6.628502.063542c.034454-1.301647-.96122-2.469816-2.349106-2.557392-1.389915-.087703-2.595963.980309-2.653763 2.400915-.056335 1.384509 1.03669 2.580121 2.469246 2.599904 1.383003.019098 2.505196-1.085272 2.533623-2.443427z"/><path d="m120.791771 6.896194h1.137543c.013908.005186.02742.013101.041779.015152.264145.037765.529503.068267.792412.113173 1.151833.196736 2.209724.631374 3.183968 1.272729.643845.423848 1.223396.92425 1.750809 1.485641.670525.713718 1.228127 1.505297 1.644127 2.393644.344528.735688.580414 1.50472.696472 2.309347.032318.224059.080154.446382.082275.67426.000153.017768.008728.035459.013397.053184v1.100248c-.004669.020275-.013519.040579-.013397.060822.001923.287027-.041321.56982-.08609.851696-.137344.865026-.408798 1.688087-.801849 2.469711-.496002.986361-1.151779 1.855732-1.954437 2.612812-.789642.744804-1.69194 1.317945-2.687653 1.747982-.871407.376352-1.782639.590338-2.724121.687099-.072937.007496-.144958.02392-.217415.036194-.29837 0-.596741 0-.895119 0-.136452-.025023-.272247-.054707-.409492-.074175-.378403-.05368-.753265-.123665-1.123878-.217915-.647659-.164711-1.278297-.381966-1.905098-.611177-1.259155-.460451-2.517845-.922169-3.776802-1.383158-.716133-.262226-1.444679-.473845-2.206329-.558083-.51384-.056829-1.028481-.071558-1.543762-.040407-.633995.03833-1.257744.144688-1.872719.303898-.607643.15731-1.200096.361406-1.788559.577602-1.182503.434439-2.363747.87233-3.546715 1.305504-.343781.125887-.686661.258511-1.038681.356773-.754715.210669-1.527275.300198-2.311523.290262-.30793-.003902-.614304-.021763-.920059-.057936-.594406-.07032-1.173706-.205118-1.737495-.405182-1.339867-.47547-2.48732-1.247561-3.467506-2.270668-.778831-.812935-1.394241-1.73802-1.848892-2.768284-.417419-.94589-.678947-1.931211-.736732-2.966965-.00457-.08193-.020988-.163202-.031898-.24478 0-.248644 0-.497287 0-.745931.011986-.046922.028183-.09322.035248-.140871.035065-.236423.056061-.475559.103271-.709447.196419-.97312.513397-1.905076.978241-2.784261.53054-1.003447 1.227592-1.872771 2.099556-2.600921.63562-.530793 1.33316-.963777 2.08358-1.311137.706238-.326908 1.428406-.608006 2.208015-.7058.249329-.031276.499451-.06975.749901-.075622.450027-.010551.900604-.000527 1.350914.004083.224014.002294.446548.026438.665672.073733.658897.142217 1.308853.319659 1.945282.54031.838379.290665 1.671844.595609 2.505516.899663.731644.266846 1.45829.547698 2.201828.780781.626511.196394 1.265121.338807 1.917984.412024.491669.05514.985077.067602 1.479134.039714.659653-.037234 1.307121-.147023 1.9431-.326704.639664-.180724 1.263985-.406932 1.888237-.633195 1.09388-.396484 2.185982-.797885 3.280296-1.193172.464119-.167649.934349-.316673 1.416138-.42714.391434-.089748.789146-.135133 1.187447-.178031.088328-.009508.176066-.024571.264079-.037079zm-21.516197 1.579552c-.189537.010049-.500244.01743-.809052.045645-.26857.024539-.536301.065703-.796715.141474-.662056.192633-1.288437.46902-1.885773.81144-.998116.572162-1.828102 1.327486-2.454987 2.294924-.656441 1.013038-1.062576 2.122199-1.231949 3.317336-.020859.147195-.032944.296024-.040886.444534-.006126.114581-.003021.230022.002434.344774.010017.210859.015961.42248.03933.632027.056625.507729.172913 1.00275.341934 1.485088.432159 1.233288 1.121727 2.301125 2.066177 3.203491.584122.558094 1.241623 1.01158 1.973228 1.355186.793854.372833 1.630791.577272 2.505966.620544.469528.023212.937943-.001019 1.40271-.074459.303543-.047962.606697-.100103.897552-.204288.616356-.220783 1.233521-.439377 1.848335-.664385.993729-.36368 1.983711-.737679 2.97924-1.096312.898178-.323557 1.815399-.577435 2.764465-.705544.487144-.065756.976128-.102339 1.467278-.102348.388298-.000006.775681.023893 1.16185.068848.534767.062254 1.061234.164074 1.578102.314901.587326.171387 1.160423.384708 1.734657.594048 1.119576.408142 2.235748.825678 3.356232 1.2313.738922.267496 1.486557.507378 2.269287.615807.141403.019587.282135.059013.423523.060766.338051.00419.676361.01692 1.014061-.032494.387299-.056671.774368-.111042 1.151634-.218794 1.365814-.390093 2.546844-1.087738 3.520256-2.12611.791214-.844017 1.382034-1.80875 1.726036-2.917734.19902-.641548.311569-1.297119.303543-1.971073-.002335-.195771.000305-.391597-.000824-.587389-.000305-.052658-.002472-.105812-.01001-.157834-.029846-.205823-.060883-.411494-.093811-.616847-.140549-.876576-.458405-1.686717-.920227-2.442102-.421402-.689265-.945084-1.292962-1.545097-1.831513-.562981-.505311-1.182678-.925717-1.8713-1.242509-.584991-.269116-1.196426-.44888-1.832375-.545433-.190201-.028877-.381454-.065485-.572777-.069101-.359764-.0068-.720703-.021996-1.079506.029148-.258156.036798-.518494.060472-.77504.10589-.465851.082472-.915085.228604-1.359138.388399-.910889.327788-1.819664.661461-2.729706.991603-.761414.276222-1.520172.560064-2.29451.799269-.738136.228022-1.49057.385408-2.260643.451839-.467606.040339-.936043.050976-1.40554.028735-.475555-.022528-.947136-.07607-1.415161-.160531-.707283-.12764-1.39724-.32167-2.072929-.564534-.803017-.288632-1.603577-.584156-2.404305-.879125-1.036865-.381955-2.074951-.759759-3.150108-1.023922-.205139-.050403-.409805-.105744-.62149-.116219-.257382-.012734-.515256-.015779-.893971-.026416z"/><path d="m103.333786 15.83255c-.017403 2.349119-1.894554 4.074371-4.025955 4.124012-2.292717.053398-4.172241-1.77319-4.224388-4.024715-.052879-2.282814 1.767845-4.214622 4.111053-4.222474 2.258263-.00757 4.122788 1.798114 4.13929 4.123177zm-6.6325.002028c.01429 1.391596 1.116722 2.501842 2.506119 2.501043 1.399467-.000805 2.502571-1.122328 2.501587-2.502757-.001007-1.403572-1.131447-2.496722-2.493668-2.501864-1.353958-.005113-2.49926 1.075686-2.514038 2.503578z"/><path d="m117.307716 15.829622c.015785-2.309988 1.867546-4.123816 4.132629-4.120225 2.334846.003703 4.166847 1.92387 4.117218 4.216282-.049049 2.265618-1.938377 4.081334-4.21804 4.031081-2.142479-.047226-4.018074-1.783382-4.031807-4.127138zm6.628495.063542c.034462-1.301647-.96122-2.469815-2.349106-2.557392-1.389908-.087703-2.595955.980309-2.653763 2.400915-.056328 1.384508 1.036697 2.58012 2.469246 2.599903 1.383011.019098 2.505196-1.08527 2.533623-2.443426z"/><path d="m143.045044 6.88779h1.137543c.013901.005186.02742.013101.041779.015152.264145.037765.529495.068267.792404.113173 1.15184.196736 2.209732.631374 3.183975 1.272729.643845.423847 1.223389.92425 1.750809 1.48564.670517.713719 1.228119 1.505298 1.644135 2.393645.344513.735688.580399 1.50472.696457 2.309347.032333.224059.080154.446382.082275.67426.000168.017768.008743.035458.013397.053184v1.100248c-.004669.020275-.013519.040579-.013382.060822.001907.287027-.041336.56982-.086105.851696-.137344.865026-.408798 1.688087-.801849 2.469711-.496002.986361-1.151779 1.855732-1.954437 2.612812-.789642.744804-1.69194 1.317945-2.687653 1.747982-.871399.376352-1.782639.590338-2.724121.687099-.072937.007496-.144958.02392-.217407.036194-.29837 0-.596741 0-.895126 0-.136444-.025023-.272247-.054707-.409485-.074175-.378403-.05368-.753265-.123665-1.123886-.217915-.647659-.164711-1.27829-.381966-1.905106-.611177-1.25914-.460451-2.517838-.922169-3.776794-1.383158-.716125-.262226-1.444672-.473845-2.206329-.558083-.51384-.056829-1.028488-.071558-1.543762-.040407-.633987.03833-1.257736.144688-1.872711.303898-.607651.15731-1.200104.361406-1.788559.577602-1.18251.434439-2.363747.87233-3.546715 1.305504-.343788.125887-.686661.258511-1.038689.356773-.754707.210669-1.527267.300198-2.311516.290262-.307938-.003902-.614311-.021763-.920067-.057936-.594398-.07032-1.173706-.205118-1.737488-.405182-1.339874-.47547-2.487328-1.247561-3.467514-2.270668-.778831-.812935-1.394234-1.73802-1.848892-2.768284-.417412-.94589-.678947-1.931211-.736732-2.966965-.00457-.08193-.020988-.163202-.031898-.24478 0-.248644 0-.497287 0-.745931.011986-.046922.028183-.09322.035255-.140871.035065-.236423.056053-.475559.103264-.709447.196419-.97312.513405-1.905076.978249-2.784261.53054-1.003447 1.227585-1.872771 2.099548-2.600921.635628-.530793 1.33316-.963777 2.083588-1.311137.70623-.326908 1.428398-.608006 2.208008-.7058.249329-.031276.499451-.06975.749901-.075622.450035-.010551.900604-.000527 1.350922.004083.224014.002294.446541.026438.665665.073733.658905.142217 1.308861.319659 1.94529.54031.838371.290665 1.671844.595609 2.505508.899663.731651.266846 1.45829.547698 2.201836.780781.626511.196394 1.265121.338807 1.917984.412024.491669.05514.985077.067602 1.479126.039714.659653-.037235 1.307129-.147023 1.9431-.326704.639664-.180724 1.263992-.406932 1.888245-.633195 1.093872-.396484 2.185974-.797885 3.280289-1.193172.464127-.167649.934357-.316673 1.416138-.42714.391434-.089748.789154-.135133 1.187454-.178031.088328-.009508.176066-.024571.264079-.037079zm-21.516205 1.579552c-.189529.010049-.500244.01743-.809044.045645-.268578.024539-.536301.065703-.796715.141474-.662056.192633-1.288445.46902-1.88578.81144-.998108.572162-1.828102 1.327486-2.454987 2.294924-.656433 1.013038-1.062576 2.122199-1.231949 3.317336-.020859.147195-.032944.296024-.040886.444534-.006126.114581-.003014.230022.002434.344774.010017.210859.015961.42248.03933.632027.056625.507729.17292 1.00275.341934 1.485088.432159 1.233288 1.121735 2.301125 2.066177 3.203491.584122.558094 1.241623 1.01158 1.973236 1.355186.793846.372833 1.630783.577272 2.505959.620544.469528.023212.937943-.001019 1.40271-.074459.303551-.047962.606697-.100103.897552-.204288.616356-.220783 1.233528-.439377 1.848343-.664385.993729-.36368 1.983711-.737679 2.97924-1.096312.898178-.323557 1.815399-.577435 2.764465-.705544.487137-.065756.97612-.102339 1.46727-.102348.388306-.000006.775681.023893 1.16185.068848.534775.062254 1.061234.164074 1.57811.314901.587326.171387 1.160416.384708 1.73465.594048 1.119583.408142 2.235748.825678 3.356232 1.2313.738922.267496 1.486557.507378 2.269287.615807.141403.019587.282135.059013.423523.060766.338058.00419.676361.01692 1.014069-.032494.387299-.056671.774368-.111042 1.151627-.218794 1.365814-.390093 2.546844-1.087738 3.520264-2.12611.791214-.844017 1.382034-1.80875 1.726028-2.917734.19902-.641548.311569-1.297119.303543-1.971073-.002335-.195771.00032-.391597-.000824-.587389-.000305-.052658-.002472-.105812-.01001-.157834-.029846-.205823-.060867-.411494-.093796-.616847-.140564-.876576-.45842-1.686717-.920242-2.442102-.421402-.689265-.945084-1.292962-1.54509-1.831513-.562988-.505311-1.182678-.925718-1.871307-1.242509-.584991-.269116-1.196426-.44888-1.832367-.545433-.190201-.028877-.381454-.065485-.572784-.069101-.359772-.0068-.720703-.021996-1.079498.029148-.258163.036798-.518494.060472-.77504.10589-.465851.082472-.915085.228604-1.359146.388399-.910889.327788-1.819656.661461-2.729706.991603-.761414.276222-1.520172.560064-2.29451.799269-.738129.228022-1.49057.385408-2.260635.451839-.467606.040339-.93605.050975-1.405548.028735-.475555-.022528-.947144-.07607-1.415161-.160531-.707275-.12764-1.397232-.321671-2.072922-.564534-.803024-.288632-1.603577-.584157-2.404305-.879125-1.036873-.381955-2.074959-.759759-3.150116-1.023922-.205139-.050403-.409805-.105744-.62149-.11622-.257386-.012733-.515252-.015777-.893975-.026415z"/><path d="m125.587051 15.824146c-.017403 2.349119-1.894554 4.074371-4.025955 4.124012-2.292709.053398-4.172234-1.77319-4.224388-4.024715-.052872-2.282814 1.767845-4.214622 4.111061-4.222474 2.258255-.00757 4.122788 1.798115 4.139282 4.123177zm-6.632492.002028c.01429 1.391596 1.116714 2.501842 2.506111 2.501043 1.399467-.000805 2.502571-1.12233 2.501587-2.502757-.000999-1.403572-1.131439-2.496722-2.49366-2.501864-1.353958-.005113-2.499267 1.075686-2.514038 2.503578z"/><path d="m139.560989 15.821218c.015778-2.309987 1.867538-4.123816 4.132629-4.120224 2.334839.003703 4.16684 1.92387 4.117218 4.216282-.049057 2.265618-1.938385 4.081334-4.218048 4.031081-2.142471-.047226-4.018066-1.783383-4.031799-4.127139zm6.628495.063542c.034454-1.301647-.961227-2.469816-2.349106-2.557392-1.389908-.087703-2.595963.980309-2.653763 2.400915-.056335 1.384508 1.036697 2.58012 2.469238 2.599903 1.383011.019098 2.505204-1.08527 2.533631-2.443426z"/><path d="m165.228195 6.900396h1.137543c.013916.005186.027435.013101.041779.015152.264145.037765.52951.068267.792419.113173 1.151825.196736 2.209717.631374 3.18396 1.272729.643845.423848 1.223404.92425 1.750809 1.485641.670517.713718 1.228134 1.505297 1.644135 2.393644.344528.735688.580399 1.50472.696472 2.309347.032318.224059.080154.446382.08226.67426.000168.017768.008743.035459.013412.053184v1.100248c-.004669.020275-.013535.040579-.013397.060822.001923.287027-.041336.56982-.08609.851696-.137344.865026-.408798 1.688087-.801849 2.469711-.496002.986361-1.151794 1.855732-1.954437 2.612812-.789642.744804-1.69194 1.317945-2.687653 1.747982-.871414.376352-1.782639.590338-2.724121.687099-.072937.007496-.144958.02392-.217422.036194-.29837 0-.596741 0-.895111 0-.136459-.025023-.272247-.054707-.4095-.074175-.378403-.05368-.753265-.123665-1.123871-.217915-.647659-.164711-1.278305-.381966-1.905106-.611177-1.259155-.460451-2.517838-.922169-3.776794-1.383158-.716141-.262226-1.444687-.473845-2.206329-.558083-.51384-.056829-1.028488-.071558-1.543762-.040407-.633987.03833-1.257751.144688-1.872711.303898-.607651.15731-1.200104.361406-1.788574.577602-1.182495.434439-2.363739.87233-3.546707 1.305504-.343781.125887-.686661.258511-1.038681.356773-.754715.210669-1.527283.300198-2.311523.290262-.307938-.003902-.614304-.021763-.920059-.057936-.594406-.07032-1.173706-.205118-1.737503-.405182-1.339859-.47547-2.48732-1.247561-3.467499-2.270668-.778839-.812935-1.394241-1.73802-1.848892-2.768284-.417419-.94589-.678955-1.931211-.73674-2.966965-.004562-.08193-.020981-.163202-.031891-.24478 0-.248644 0-.497287 0-.745931.011978-.046922.028183-.09322.035248-.140871.035065-.236423.056061-.475559.103271-.709447.196411-.97312.513397-1.905076.978241-2.784261.530533-1.003447 1.227585-1.872771 2.099548-2.600921.635635-.530793 1.33316-.963777 2.083588-1.311137.706238-.326907 1.428406-.608006 2.208008-.7058.249329-.031276.499451-.06975.749908-.075622.450027-.010551.900604-.000527 1.350906.004083.224014.002294.446548.026438.66568.073733.658905.142217 1.308853.319659 1.945282.54031.838379.290665 1.671844.595609 2.505508.899663.731644.266846 1.458298.547698 2.201843.780781.626495.196394 1.265106.338807 1.917984.412024.491653.05514.985062.067602 1.479126.039714.659653-.037234 1.307114-.147023 1.9431-.326704.639664-.180724 1.263977-.406932 1.888229-.633195 1.093887-.396484 2.185989-.797885 3.280304-1.193172.464111-.167649.934341-.316673 1.416138-.42714.391434-.089748.789139-.135133 1.187454-.17803.088332-.009509.17607-.024572.264067-.03708zm-21.516189 1.579552c-.189545.010049-.500244.01743-.809052.045645-.26857.024539-.536301.065703-.796707.141474-.662064.192633-1.288452.46902-1.885788.811441-.998108.572161-1.828094 1.327485-2.454987 2.294923-.656433 1.013038-1.062576 2.122199-1.231949 3.317336-.020859.147195-.032944.296024-.040878.444534-.006134.114581-.003021.230022.002426.344774.010025.210859.015961.42248.039337.632027.056625.507729.172913 1.00275.341934 1.485088.432159 1.233288 1.121735 2.301125 2.066177 3.203491.584122.558094 1.241623 1.01158 1.973236 1.355186.793839.372833 1.630783.577272 2.505951.620544.469528.023212.937943-.001019 1.40271-.074459.303543-.047962.606705-.100103.897552-.204288.616364-.220783 1.233521-.439377 1.848343-.664385.993729-.36368 1.983704-.737679 2.979248-1.096312.898163-.323557 1.815384-.577435 2.76445-.705544.487152-.065756.976135-.102339 1.467285-.102348.38829-.000006.775681.023893 1.16185.068848.53476.062254 1.061234.164074 1.57811.314901.587311.171387 1.160416.384708 1.73465.594048 1.119583.408142 2.235748.825678 3.356232 1.2313.738922.267496 1.486557.507378 2.269287.615807.141403.019587.282135.059013.423523.060766.338043.00419.676361.01692 1.014053-.032494.387299-.056671.774368-.111042 1.151642-.218794 1.365814-.390093 2.546844-1.087738 3.520248-2.12611.791214-.844017 1.382034-1.80875 1.726044-2.917734.199005-.641548.311569-1.297119.303528-1.971073-.002335-.195771.00032-.391597-.000809-.587389-.000305-.052658-.002472-.105812-.01001-.157834-.029846-.205823-.060883-.411494-.093811-.616847-.140549-.876576-.458405-1.686716-.920227-2.442102-.421402-.689265-.945084-1.292962-1.545105-1.831513-.562973-.505311-1.182663-.925717-1.871292-1.242509-.584991-.269116-1.196426-.44888-1.832382-.545433-.190201-.028877-.381454-.065485-.572769-.069101-.359772-.0068-.720703-.021996-1.079514.029148-.258148.036798-.518494.060472-.77504.10589-.465851.082472-.915085.228604-1.359131.388399-.910889.327788-1.819672.661461-2.729706.991603-.761414.276222-1.520172.560064-2.29451.799269-.738144.228022-1.49057.385408-2.260651.451839-.467606.040339-.936035.050976-1.405533.028735-.475555-.022528-.947144-.07607-1.415161-.160531-.707291-.12764-1.397247-.32167-2.072922-.564534-.803024-.288632-1.603577-.584156-2.404312-.879125-1.036865-.381955-2.074951-.759759-3.150116-1.023922-.205139-.050403-.409805-.105744-.62149-.116219-.257383-.012735-.515256-.015779-.893964-.026416z"/><path d="m147.770218 15.836752c-.01741 2.349119-1.894562 4.074371-4.025955 4.124012-2.292709.053398-4.172241-1.773188-4.224396-4.024715-.052872-2.282814 1.767853-4.214622 4.111053-4.222474 2.258271-.00757 4.122803 1.798114 4.139298 4.123177zm-6.632507.002027c.014297 1.391596 1.11673 2.501842 2.506119 2.501043 1.399475-.000805 2.502579-1.122328 2.501587-2.502757-.000992-1.403572-1.131439-2.496722-2.493652-2.501864-1.353959-.005112-2.499269 1.075687-2.514054 2.503578z"/><path d="m161.744141 15.833824c.015793-2.309988 1.867554-4.123816 4.132629-4.120225 2.334854.003703 4.166855 1.92387 4.117218 4.216283-.049042 2.265617-1.93837 4.081333-4.218033 4.03108-2.142486-.047226-4.018081-1.783382-4.031814-4.127138zm6.628509.063543c.034454-1.301648-.961227-2.469816-2.349121-2.557393-1.389908-.087703-2.595947.980309-2.653748 2.400915-.056335 1.38451 1.036682 2.58012 2.469238 2.599903 1.383012.019098 2.505189-1.08527 2.533631-2.443425z"/><path d="m187.481476 6.891992h1.137543c.013901.005186.02742.013101.041763.015152.264145.037765.52951.068267.792419.113173 1.151825.196736 2.209732.631374 3.183975 1.272729.643845.423847 1.223389.92425 1.750809 1.48564.670517.713719 1.228119 1.505298 1.644135 2.393645.344513.735688.580399 1.50472.696457 2.309347.032318.224059.080154.446382.082275.67426.000153.017768.008728.035459.013397.053184v1.100248c-.004669.020275-.013519.040579-.013382.060822.001907.287027-.041336.56982-.086105.851696-.137344.865026-.408798 1.688087-.801849 2.469711-.496002.986361-1.151779 1.855732-1.954437 2.612812-.789642.744804-1.69194 1.317945-2.687653 1.747982-.871414.376352-1.782639.590338-2.724121.687099-.072937.007496-.144958.02392-.217407.036194-.29837 0-.596756 0-.895126 0-.136459-.025023-.272247-.054707-.409485-.074175-.378403-.05368-.753281-.123665-1.123886-.217915-.647659-.164711-1.27829-.381966-1.905106-.611177-1.25914-.460451-2.517838-.922169-3.776794-1.383158-.716125-.262226-1.444672-.473845-2.206329-.558083-.51384-.056829-1.028488-.071558-1.543762-.040407-.633987.03833-1.257736.144688-1.872711.303898-.607651.15731-1.200104.361406-1.788574.577602-1.182495.434439-2.363739.87233-3.546707 1.305504-.343781.125887-.686661.258511-1.038681.356773-.754715.210669-1.527267.300198-2.311523.290262-.307938-.003902-.614304-.021763-.920059-.057936-.594406-.07032-1.173706-.205118-1.737488-.405182-1.339874-.47547-2.487335-1.247561-3.467514-2.270668-.778839-.812935-1.394241-1.73802-1.848892-2.768284-.417419-.94589-.678955-1.931211-.73674-2.966965-.004562-.08193-.020981-.163202-.031891-.24478 0-.248644 0-.497287 0-.745931.011993-.046922.028183-.09322.035248-.140871.035065-.236423.056061-.475559.103271-.709447.196426-.97312.513397-1.905076.978241-2.784261.530548-1.003447 1.2276-1.872771 2.099548-2.600921.635635-.530793 1.333176-.963777 2.083588-1.311137.706238-.326908 1.428406-.608006 2.208008-.7058.249329-.031276.499466-.06975.749908-.075622.450027-.010551.900604-.000527 1.350922.004083.224014.002294.446533.026438.665665.073733.658905.142217 1.308853.319659 1.945282.54031.838379.290665 1.671844.595609 2.505508.899663.731644.266846 1.458298.547698 2.201843.780781.626511.196394 1.265106.338807 1.917984.412024.491669.05514.985062.067602 1.479126.039714.659653-.037235 1.307129-.147023 1.9431-.326704.639664-.180724 1.263992-.406932 1.888229-.633195 1.093887-.396484 2.185989-.797885 3.280304-1.193172.464127-.167649.934341-.316673 1.416138-.42714.391434-.089748.789139-.135133 1.187454-.178031.088331-.009508.176069-.024571.264082-.037079zm-21.516205 1.579552c-.189529.010049-.500244.01743-.809052.045645-.26857.024539-.536301.065703-.796707.141474-.662064.192633-1.288437.46902-1.885788.81144-.998108.572162-1.828094 1.327486-2.454987 2.294924-.656433 1.013038-1.062561 2.122199-1.231934 3.317336-.020874.147195-.032959.296024-.040894.444534-.006119.114581-.003021.230022.002426.344774.010025.210859.015976.42248.039337.632027.056625.507729.172913 1.00275.341934 1.485088.432159 1.233288 1.121735 2.301125 2.066177 3.203491.584122.558094 1.241623 1.01158 1.973236 1.355186.793839.372833 1.630783.577272 2.505966.620544.469513.023212.937943-.001019 1.402695-.074459.303558-.047962.606705-.100103.897552-.204288.616364-.220783 1.233536-.439377 1.848343-.664385.993729-.36368 1.983719-.737679 2.979248-1.096312.898178-.323557 1.815399-.577435 2.76445-.705544.487152-.065756.976135-.102339 1.467285-.102348.38829-.000006.775681.023893 1.16185.068848.534775.062254 1.061234.164074 1.57811.314901.587311.171387 1.160416.384708 1.73465.594048 1.119583.408142 2.235748.825678 3.356232 1.2313.738922.267496 1.486557.507378 2.269287.615807.141403.019587.282135.059013.423523.060766.338058.00419.676361.01692 1.014053-.032494.387314-.056671.774384-.111042 1.151642-.218794 1.365814-.390093 2.546844-1.087738 3.520248-2.12611.791214-.844017 1.382034-1.80875 1.726044-2.917734.19902-.641548.311569-1.297119.303543-1.971073-.002335-.195771.000305-.391597-.000824-.587389-.000305-.052658-.002472-.105812-.01001-.157834-.029846-.205823-.060883-.411494-.093796-.616847-.140564-.876576-.45842-1.686717-.920242-2.442102-.421402-.689265-.945084-1.292962-1.545105-1.831513-.562973-.505311-1.182663-.925718-1.871292-1.242509-.584991-.269116-1.196426-.44888-1.832382-.545433-.190186-.028877-.381439-.065485-.572769-.069101-.359772-.0068-.720703-.021996-1.079498.029148-.258163.036798-.518494.060472-.775055.10589-.465851.082472-.915085.228604-1.359131.388399-.910889.327788-1.819656.661461-2.729706.991603-.761414.276222-1.520172.560064-2.29451.799269-.738129.228022-1.49057.385408-2.260635.451839-.467606.040339-.93605.050976-1.405548.028735-.475555-.022528-.947144-.07607-1.415161-.160531-.707275-.12764-1.397247-.321671-2.072922-.564534-.803024-.288632-1.603577-.584156-2.404312-.879125-1.036865-.381955-2.074951-.759759-3.150101-1.023922-.205154-.050403-.409821-.105744-.62149-.116219-.257399-.012734-.515257-.015778-.89398-.026416z"/><path d="m170.023483 15.828348c-.017395 2.349119-1.894547 4.074371-4.025955 4.124012-2.292709.053398-4.172241-1.77319-4.224396-4.024715-.052872-2.282814 1.767853-4.214622 4.111069-4.222474 2.258255-.00757 4.122788 1.798114 4.139282 4.123177zm-6.632492.002028c.014282 1.391596 1.116714 2.501842 2.506104 2.501043 1.399475-.000805 2.502579-1.12233 2.501587-2.502757-.000992-1.403572-1.131439-2.496722-2.493652-2.501864-1.353959-.005113-2.499268 1.075686-2.514039 2.503578z"/><path d="m183.997406 15.82542c.015793-2.309988 1.867554-4.123816 4.132645-4.120225 2.334839.003703 4.16684 1.92387 4.117218 4.216282-.049057 2.265618-1.938385 4.081334-4.218048 4.031081-2.142472-.047225-4.018082-1.783382-4.031815-4.127138zm6.62851.063542c.034454-1.301647-.961227-2.469815-2.349106-2.557392-1.389923-.087703-2.595963.980309-2.653763 2.400915-.056335 1.384508 1.036697 2.58012 2.469238 2.599903 1.383011.019098 2.505203-1.08527 2.533631-2.443426z"/></g></svg>